<svg viewBox="0 0 96 96" xmlns="http://www.w3.org/2000/svg" xmlns:xlink="http://www.w3.org/1999/xlink" id="Icons_Court" overflow="hidden"><path d="M79 75 79 73 76 73 76 39 79 39 79 37 82 37 82 31 79 31 48 12 17 31 14 31 14 37 17 37 17 39 20 39 20 73 17 73 17 75 10 80 10 84 86 84 86 80 79 75ZM36 73 28 73 28 39 36 39 36 73ZM52 73 44 73 44 39 52 39 52 73ZM68 73 60 73 60 39 68 39 68 73Z" fill="#92D050"/><g id="Icons_Layer_2" display="none"><rect x="45" y="0" width="8" height="8" fill="#92D050"/><rect x="84" y="84" width="12" height="12" fill="#92D050"/><rect x="86" y="70" width="10" height="12" fill="#92D050"/></g></svg>