<svg viewBox="0 0 96 96" xmlns="http://www.w3.org/2000/svg" xmlns:xlink="http://www.w3.org/1999/xlink" id="Icons_ParkScene" overflow="hidden"><path d="M68.77 56C69.8746 56 70.77 55.1046 70.77 54 70.77 52.8954 69.8746 52 68.77 52L66 52 66 50 68.77 50C69.8746 50 70.77 49.1046 70.77 48 70.77 46.8954 69.8746 46 68.77 46L66 46 66 42 62 42 62 46 34 46 34 42 30 42 30 46 27.23 46C26.1254 46 25.23 46.8954 25.23 48 25.23 49.1046 26.1254 50 27.23 50L30 50 30 52 27.23 52C26.1254 52 25.23 52.8954 25.23 54 25.23 55.1046 26.1254 56 27.23 56L30 56 30 58 27.23 58C26.1254 58 25.23 58.8954 25.23 60 25.23 61.1046 26.1254 62 27.23 62L30 62 30 65 34 65 34 62 62 62 62 65 66 65 66 62 68.77 62C69.8746 62 70.77 61.1046 70.77 60 70.77 58.8954 69.8746 58 68.77 58L66 58 66 56ZM34 50 62 50 62 52 34 52ZM62 58 34 58 34 56 62 56Z" stroke="none" stroke-width="1" stroke-linecap="butt" fill="#92D050" fill-opacity="1"/><path d="M81 82 81 30.1 82.18 30.1C82.2664 30.1104 82.3536 30.1104 82.44 30.1 82.5785 30.0799 82.7133 30.0395 82.84 29.98 82.9171 29.9514 82.9909 29.9146 83.06 29.87 83.3376 29.6999 83.5519 29.4434 83.67 29.14 83.7098 29.0721 83.7369 28.9976 83.75 28.92L83.75 28.84 86.45 15.94 86.45 15.94C86.4608 15.8403 86.4608 15.7397 86.45 15.64 86.45 14.86 86.06 13.46 83.45 12.69 82.6518 12.4388 81.8314 12.2646 81 12.17 80.9066 11.1363 80.0379 10.3458 79 10.35 77.9543 10.3153 77.0695 11.1161 77 12.16L77 12.16C73.53 12.49 71.51 13.71 71.51 15.57 71.51 15.63 71.51 15.69 71.51 15.74 71.5052 15.7932 71.5052 15.8468 71.51 15.9 71.5019 15.9396 71.5019 15.9804 71.51 16.02L74.15 28.71 74.15 28.89 74.15 28.89C74.1723 28.9759 74.2024 29.0596 74.24 29.14 74.2383 29.17 74.2383 29.2 74.24 29.23L74.36 29.42 74.42 29.49C74.4622 29.5472 74.5128 29.5978 74.57 29.64 74.57 29.64 74.63 29.7 74.66 29.73L74.89 29.88C74.9685 29.9267 75.0525 29.9637 75.14 29.99 75.2242 30.0194 75.3114 30.0396 75.4 30.05 75.4864 30.0598 75.5736 30.0598 75.66 30.05L77 30.05 77 82 68 82 68 73 72.42 73C73.2926 73 74 72.2926 74 71.42L74 68.58C74 67.7074 73.2926 67 72.42 67L23.58 67C22.7074 67 22 67.7074 22 68.58L22 71.42C22 72.2926 22.7074 73 23.58 73L28 73 28 82 16 82 16 80.57 17.69 80.57C18.3873 80.5686 18.9863 80.0743 19.12 79.39L19.12 79.39C19.4008 78.1174 20.0231 76.9454 20.92 76 21.0447 75.8827 21.0506 75.6865 20.9333 75.5618 20.8506 75.474 20.7245 75.442 20.61 75.48 18.8697 75.877 17.2737 76.7494 16 78L16 75.27C20.46 74.52 18 68.72 18 68.72 17.9159 68.5709 17.7268 68.5182 17.5777 68.6023 17.5285 68.6301 17.4878 68.6708 17.46 68.72L16.39 70.54 15.32 68.72C15.2639 68.6185 15.1559 68.5568 15.04 68.56 14.9277 68.5605 14.8244 68.6217 14.77 68.72L13.7 70.54 12.63 68.72C12.5396 68.5681 12.3432 68.5183 12.1914 68.6086 12.1455 68.6359 12.1073 68.6742 12.08 68.72 12.08 68.72 9.59 74.52 14.08 75.27L14.08 78C12.8106 76.7562 11.2221 75.8876 9.49 75.49 9.34917 75.3823 9.1477 75.4092 9.04 75.55 8.9323 75.6908 8.95917 75.8923 9.1 76 9.99706 76.9375 10.6197 78.1031 10.9 79.37L10.9 79.37C11.0337 80.0544 11.6327 80.5486 12.33 80.55L14 80.55 14 82 4 82 4 86 92 86 92 82ZM64 82 32 82 32 73 64 73ZM77.75 26.1 75.75 16.43C76.2277 16.297 76.7163 16.2066 77.21 16.16L80.68 16.16C81.2264 16.2113 81.7681 16.3049 82.3 16.44L80.3 26.1Z" stroke="none" stroke-width="1" stroke-linecap="butt" fill="#92D050" fill-opacity="1"/></svg>